<svg width="40" height="40" viewBox="0 0 40 40" fill="none" xmlns="http://www.w3.org/2000/svg">
<rect width="40" height="40" fill="white"/>
<path d="M20 5 L10 15 L20 25 L30 15 Z" fill="#28A745"/>
<path d="M20 15 L10 25 L20 35 L30 25 Z" fill="#007BFF"/>
<path d="M20 15 L15 20 L20 25 L25 20 Z" fill="#DC3545"/>
<circle cx="20" cy="20" r="8" fill="#FFC107" opacity="0.7"/>
<path d="M20 12 C16.6863 12 14 14.6863 14 18 C14 21.3137 16.6863 24 20 24 C23.3137 24 26 21.3137 26 18 C26 14.6863 23.3137 12 20 12 Z" fill="#203A43"/>
<path d="M20 18 C20 17.4477 19.5523 17 19 17 C18.4477 17 18 17.4477 18 18 C18 18.5523 18.4477 19 19 19 C19.5523 19 20 18.5523 20 18 Z" fill="white"/>
<path d="M22 18 C22 17.4477 21.5523 17 21 17 C20.4477 17 20 17.4477 20 18 C20 18.5523 20.4477 19 21 19 C21.5523 19 22 18.5523 22 18 Z" fill="white"/>
</svg>